<svg xmlns="http://www.w3.org/2000/svg" width="1006.812" height="762" viewBox="0 0 1006.812 762"><path fill="#6c63ff" d="M627.406 295h86v55h-86zm-134 86h86v55h-86z"/><path fill="#f2f2f2" d="M964.811 313V196h-65v-76h-44v76h-65v117h-36V50h-73V25h-97V0h-96v25h-91v25h-79v262h-42V195h-65v-76h-44v76h-65v117h-42v415h96V580h66v147h258V556h112v171h156v1h96V581h66v147h96V313Zm-869.5 50h38v30h-38Zm.5 84h38v30h-38Zm38.5 114h-38v-30h38Zm99.5-271h-88v-18h88Zm0-26h-88v-18h88Zm0-26h-88v-18h88Zm12.5 125h38v30h-38Zm.5 84h38v30h-38Zm38.5 114h-38v-30h38Zm155.5-50h-70v-31h70Zm0-89h-70v-31h70Zm0-89h-70v-31h70Zm0-89h-70v-31h70Zm0-89h-70v-31h70Zm131 356h-70v-31h70Zm0-89h-70v-31h70Zm0-89h-70v-31h70Zm0-89h-70v-31h70Zm0-89h-70v-31h70Zm131 356h-70v-31h70Zm0-89h-70v-31h70Zm0-89h-70v-31h70Zm0-89h-70v-31h70Zm0-89h-70v-31h70Zm80.5 209h38v30h-38Zm.5 84h38v30h-38Zm38.5 114h-38v-30h38Zm99.5-271h-88v-18h88Zm0-26h-88v-18h88Zm0-26h-88v-18h88Zm12.5 125h38v30h-38Zm.5 84h38v30h-38Zm38.5 114h-38v-30h38Z"/><path fill="#6c63ff" d="M120 625.71a178 178 0 0 1-1.394 13.03l12.225-13.56.068.228a35.6 35.6 0 0 0-3.576-9.332l.078.215Zm.048-.694 7.169-9.124a18.8 18.8 0 0 0-6.412-6.833 14 14 0 0 0-.396-.225c.04 1.078.227 7.403-.361 16.182m-6.468 35.767q-.472 1.439-.976 2.826l18.005-10.557.025.265q.564-2.463.94-4.925l-17.978 12.511Zm2.504-8.861L132.3 638.55l.046.25a56 56 0 0 0-1.39-13.147l-12.46 13.817q-.98 6.532-2.412 12.453m2.135-12.717-19.403-21.65.103-.244a46.8 46.8 0 0 0-4.655 8.196l22.142 23.574c.758-3.44 1.35-6.772 1.813-9.876m-24.165-13.211h.001c.035-.08.065-.167.1-.247Zm-1.079 2.655-.1.248c.032-.085.068-.162.1-.247Zm23.303 21.006-22.223-23.66q-.563 1.29-1.08 2.655l22.713 23.508q.31-1.259.59-2.503m15.344-1.58a67 67 0 0 0 .721-8.986l-16.435 13.554q-.976 3.942-2.15 7.58l17.829-12.406Zm-41.594 1.687 17.989 23.469a80 80 0 0 0 3.909-8.812l-21.95-23.055a65 65 0 0 0-.072 8.661Zm30.052-40.949.162-.072c-3.94-2.104-8.205-1.878-12.292.255L119.73 625c.634-9.498.354-16.091.35-16.186m-8.06 56.365a80 80 0 0 1-3.533 7.946l18.095-9.362.018.26a31.7 31.7 0 0 0 3.173-7.34q.43-1.517.787-3.043l-18.22 10.683q-.158.43-.32.856m7.662-39.472-12.051-16.37.113-.232a27 27 0 0 0-8.68 8.009l19.245 21.473c.666-4.597 1.098-8.97 1.373-12.88m-7.559 38.183a109 109 0 0 0 3.426-11.171l-22.77-23.566q-.813 2.208-1.493 4.593a39 39 0 0 0-1.255 6.97l22.074 23.185Zm23.387 25.425a178 178 0 0 1-9.384 9.147l18.064-2.645-.093.217a35.6 35.6 0 0 0 3.197-9.467l-.076.215Zm11.24-12.31a14 14 0 0 0-.161-.426c-.657.855-4.547 5.847-10.6 12.232l11.341-2.454a18.8 18.8 0 0 0-.58-9.352m-38.555 35.229q-1.281.807-2.554 1.554l20.6 3.353-.149.22q2.005-1.537 3.865-3.193l-21.826-1.83Zm7.58-5.227 21.02.042-.125.222a56 56 0 0 0 7.315-11.012l-18.409 2.695q-4.922 4.405-9.8 8.053m-7.086 4.911 21.643 1.815-.138.222a67 67 0 0 0 6.288-6.462l-21.303-.043q-3.267 2.414-6.49 4.468"/><path fill="#6c63ff" d="M82.179 722.629c.153-.155.316-.324.476-.488a55.6 55.6 0 0 0 12.844-3.67l.589-15.599q.261-.595.508-1.2l-.626 16.602a80 80 0 0 0 8.632-4.294l-2.01-28.999q.231-.12.471-.247l2.008 28.96.02.004a109 109 0 0 0 9.764-6.42l-2.189-28.536q.233-.168.465-.34l2.189 28.534q1.041-.771 2.05-1.551l-1.806-28.887q.233-.19.464-.383l1.807 28.909a145 145 0 0 0 7.695-6.45l-1.136-29.05.236-.122c-.806.21-1.626.46-2.453.732a41 41 0 0 0 4.18-5.698l-18.268 9.451a61.5 61.5 0 0 1-4.257 6.933c-.327.308-.653.616-.975.938l.024.346q-.222.297-.448.587l-.033-.467c-.23.236-.455.487-.683.73a57.7 57.7 0 0 0 6.063-9.27l-17.857-23.297c.122 2.083.325 4.179.587 6.258a35.2 35.2 0 0 0-5.986-7.314l.14.18-4.126 11.245a178 178 0 0 1 2.701 12.823l7.334-16.445.104.768-7.316 16.405q1.086 6.515 1.555 12.589l8.78-13.793.151.592-8.875 13.941q.29 4.052.299 7.874l10.734-14.162.168.546-10.847 14.312-.053-.11q-.005 1.515-.055 2.99l12.108-13.633.18.525-12.318 13.868q-.018.458-.04.913a80 80 0 0 1-.903 8.65l1.168-1.184q-.332.689-.646 1.358l-.665.673c-.077.438-.164.866-.247 1.296q-.368.808-.71 1.577c.22-.983.425-1.972.6-2.97L59.56 693.522c6.31 16.142 18.19 31.496 18.951 32.47a44 44 0 0 0 1.694-3.55l.449-.045q-.094.224-.19.443l-.226.028.192.053a46 46 0 0 1-1.142 2.482 68 68 0 0 0 2.293-2.177c5.687 1.452 21.007 4.556 34.124-.03l-20.098-4.372a56.2 56.2 0 0 1-13.429 3.805m14.123-25.43.481-.489-.027.731-.482.488Zm50.047-20.845.17.048c-1.691-4.134-5.12-6.68-9.63-7.644l-1.132 19.84c6.546-6.911 10.535-12.168 10.592-12.244"/><path fill="#6c63ff" d="M104.19 714.625a80 80 0 0 1-7.789 3.866l19.907 4.33-.152.213a31.7 31.7 0 0 0 7.126-3.63q1.3-.894 2.547-1.842l-20.846-3.393q-.397.231-.793.456m21.805-16.47a177 177 0 0 0 9.272-9.044l1.159-20.294.236-.108a27 27 0 0 0-11.794.633Zm-41.628-48.966a18.8 18.8 0 0 0-8.21-4.517q-.225-.05-.446-.091c.37 1.012 2.504 6.97 4.658 15.5Zm-1.352 24.954L57.871 659.55l.023-.265a46.8 46.8 0 0 0-1.895 9.233l28.344 15.576a146 146 0 0 0-1.328-9.952m-27.065-5.095h.002c.008-.086.01-.179.019-.266Zm-.205 2.859-.019.267c.004-.09.015-.176.02-.266ZM84.4 684.68l-28.448-15.632q-.137 1.402-.206 2.859l28.866 15.336q-.094-1.293-.212-2.563m.424 15.386-28-15.14a65 65 0 0 0 2.608 8.259l.036-.29 24.362 16.76a80 80 0 0 0 .994-9.589m-9.432-55.403.131-.118c-4.397-.784-8.383.75-11.611 4.042l16.15 11.577c-2.332-9.228-4.637-15.412-4.67-15.5m4.843 16.188-16.521-11.843.035-.256a27 27 0 0 0-5.779 10.3l24.94 14.472a178 178 0 0 0-2.675-12.673m4.613 38.651a109 109 0 0 0-.195-11.684l-28.939-15.374q-.09 2.35 0 4.83a39 39 0 0 0 .96 7.016l28.16 15.227ZM976 622.71c-.28 3.955-.718 8.38-1.394 13.03l12.225-13.56.068.228a35.6 35.6 0 0 0-3.576-9.332l.078.215Zm.048-.694 7.169-9.124a18.8 18.8 0 0 0-6.412-6.833 14 14 0 0 0-.396-.225c.04 1.078.227 7.403-.361 16.182m-6.468 35.767q-.472 1.439-.976 2.826l18.005-10.557.025.265q.564-2.463.94-4.925l-17.978 12.511Zm2.504-8.861L988.3 635.55l.046.25a56 56 0 0 0-1.39-13.147l-12.46 13.817q-.98 6.532-2.412 12.453m2.135-12.717-19.403-21.65.103-.244a46.8 46.8 0 0 0-4.655 8.196l22.142 23.574c.758-3.44 1.35-6.772 1.813-9.876m-24.165-13.211c.035-.08.065-.167.1-.247Zm22.224 23.661-22.223-23.66q-.563 1.29-1.08 2.655l22.713 23.508q.31-1.259.59-2.503m-23.303-21.006-.1.248c.032-.085.068-.162.1-.247Zm38.647 19.426a67 67 0 0 0 .721-8.986l-16.435 13.554q-.976 3.942-2.15 7.58l17.829-12.406Zm-41.594 1.687 17.989 23.469a80 80 0 0 0 3.909-8.812l-21.95-23.055a65 65 0 0 0-.072 8.661Zm30.052-40.949.162-.072c-3.94-2.104-8.205-1.878-12.292.255L975.73 622c.635-9.498.355-16.091.35-16.186m-8.06 56.365a80 80 0 0 1-3.533 7.946l18.095-9.362.018.26a31.7 31.7 0 0 0 3.173-7.34q.43-1.517.787-3.043l-18.22 10.683q-.158.43-.32.856m7.662-39.472-12.051-16.37.113-.232a27 27 0 0 0-8.68 8.009l19.245 21.473c.666-4.597 1.098-8.97 1.373-12.88m-7.559 38.183a109 109 0 0 0 3.426-11.171l-22.77-23.566q-.813 2.208-1.493 4.593a39 39 0 0 0-1.255 6.97l22.075 23.185Zm23.387 25.425a178 178 0 0 1-9.385 9.147l18.065-2.645-.093.217a35.6 35.6 0 0 0 3.197-9.467l-.076.215Zm11.24-12.31a14 14 0 0 0-.161-.426c-.657.855-4.547 5.847-10.6 12.232l11.341-2.454a18.8 18.8 0 0 0-.58-9.352m-38.555 35.229q-1.281.807-2.554 1.554l20.6 3.353-.149.22q2.005-1.537 3.865-3.193l-21.826-1.83Zm7.58-5.227 21.02.042-.125.222a56 56 0 0 0 7.315-11.012l-18.409 2.695q-4.922 4.405-9.8 8.053m-7.086 4.911 21.643 1.815-.138.222a67 67 0 0 0 6.288-6.462l-21.303-.043q-3.267 2.414-6.49 4.468"/><path fill="#6c63ff" d="m938.18 719.629.475-.488a55.6 55.6 0 0 0 12.844-3.67l.589-15.599q.261-.595.508-1.2l-.626 16.602a80 80 0 0 0 8.632-4.294l-2.01-28.999q.231-.12.471-.247l2.008 28.96.02.004a109 109 0 0 0 9.764-6.42l-2.189-28.536q.232-.168.465-.34l2.189 28.534q1.041-.771 2.05-1.551l-1.806-28.887q.233-.19.464-.383l1.807 28.909a145 145 0 0 0 7.695-6.45l-1.136-29.05.236-.122c-.806.21-1.626.46-2.453.732a41 41 0 0 0 4.18-5.698l-18.268 9.451a61.5 61.5 0 0 1-4.257 6.933c-.327.308-.653.616-.975.938l.024.346q-.222.297-.448.587l-.033-.467c-.23.236-.455.487-.683.73a57.7 57.7 0 0 0 6.063-9.27l-17.857-23.297c.122 2.083.325 4.179.587 6.258a35.2 35.2 0 0 0-5.986-7.314l.14.18-4.126 11.245a178 178 0 0 1 2.701 12.823l7.334-16.445.104.768-7.316 16.405q1.086 6.515 1.555 12.589l8.78-13.793.151.592-8.875 13.941q.29 4.052.299 7.874l10.734-14.162.168.546-10.847 14.312-.053-.11q-.004 1.515-.054 2.99l12.107-13.633.18.525-12.318 13.868q-.018.458-.04.913a80 80 0 0 1-.903 8.65l1.168-1.184q-.332.689-.646 1.358l-.665.673c-.077.438-.163.866-.247 1.296q-.368.808-.71 1.577c.22-.983.425-1.972.6-2.97l-24.184-16.637c6.31 16.142 18.19 31.496 18.951 32.47a44 44 0 0 0 1.694-3.55l.449-.045q-.093.224-.19.443l-.226.028.192.053a46 46 0 0 1-1.142 2.482 68 68 0 0 0 2.293-2.177c5.687 1.452 21.007 4.556 34.124-.03l-20.098-4.371a56.2 56.2 0 0 1-13.429 3.804m14.122-25.43.481-.489-.027.731-.482.488Zm50.047-20.845.17.048c-1.691-4.134-5.12-6.68-9.63-7.644l-1.132 19.84c6.546-6.911 10.535-12.168 10.592-12.244"/><path fill="#6c63ff" d="M960.19 711.625a80 80 0 0 1-7.789 3.866l19.907 4.33-.152.213a31.7 31.7 0 0 0 7.126-3.63q1.3-.894 2.547-1.842l-20.846-3.393q-.396.231-.793.456m21.805-16.47a177 177 0 0 0 9.272-9.044l1.159-20.294.235-.108a27 27 0 0 0-11.793.633Zm-41.628-48.966a18.8 18.8 0 0 0-8.21-4.517q-.225-.05-.446-.091c.37 1.012 2.504 6.97 4.658 15.5Zm-1.352 24.954-25.144-14.592.023-.265a46.8 46.8 0 0 0-1.895 9.233l28.344 15.576a146 146 0 0 0-1.328-9.952m-27.27-2.237-.019.267c.004-.09.015-.176.02-.266Zm.205-2.859h.002c.008-.086.01-.179.019-.266Zm28.45 15.633-28.448-15.632q-.137 1.402-.206 2.859l28.866 15.336q-.094-1.293-.212-2.563m.424 15.386-28-15.14a65 65 0 0 0 2.608 8.259l.036-.29 24.362 16.76a80 80 0 0 0 .994-9.589m-9.432-55.403.131-.118c-4.397-.784-8.383.75-11.611 4.042l16.15 11.577c-2.332-9.228-4.637-15.412-4.67-15.5m4.843 16.188-16.521-11.843.035-.256a27 27 0 0 0-5.779 10.3l24.94 14.472a177 177 0 0 0-2.675-12.673m4.613 38.651a109 109 0 0 0-.195-11.684l-28.939-15.374q-.09 2.35 0 4.83a39 39 0 0 0 .96 7.016l28.16 15.227Z"/><path fill="#2f2e41" d="M60.812 727h946v13.535A21.465 21.465 0 0 1 985.347 762H82.277a21.465 21.465 0 0 1-21.465-21.465z"/><path fill="#3f3d56" d="M60.812 716h946v19h-946z"/><path fill="#f2f2f2" d="m793.955 65.974 10.864 6.89-6.596-11.994a10.74 10.74 0 0 1 6.57-2.345q.088 0 .175.002a12.6 12.6 0 0 0 2.254-.167l3.682 2.335-1.579-2.87a13.1 13.1 0 0 0 6.442-4.888l6.59 4.179-4.163-7.57c3.853-4.626 9.048-7.463 14.765-7.463 6.853 0 12.957 4.076 16.898 10.426a12.63 12.63 0 0 0 11.17 6.023q.184-.007.369-.007c7.565 0 13.698 8.578 13.698 19.16s-6.133 19.159-13.698 19.159a10.3 10.3 0 0 1-4.772-1.195 19.77 19.77 0 0 0-16.58-.324 17.28 17.28 0 0 1-14.096.033 19.78 19.78 0 0 0-16.434.317 10.3 10.3 0 0 1-4.721 1.169c-7.566 0-13.699-8.578-13.699-19.16a24.3 24.3 0 0 1 2.86-11.71m-552.757 56.27 6.911 4.383-4.196-7.63a6.83 6.83 0 0 1 4.18-1.492l.11.001a8 8 0 0 0 1.434-.106l2.343 1.486-1.004-1.826a8.34 8.34 0 0 0 4.097-3.11l4.192 2.659-2.648-4.815a12.27 12.27 0 0 1 9.392-4.747c4.36 0 8.243 2.592 10.75 6.632a8.04 8.04 0 0 0 7.105 3.83q.117-.004.234-.004c4.813 0 8.714 5.457 8.714 12.188s-3.9 12.188-8.714 12.188a6.54 6.54 0 0 1-3.035-.76 12.58 12.58 0 0 0-10.547-.206 11 11 0 0 1-8.967.02 12.58 12.58 0 0 0-10.454.203 6.5 6.5 0 0 1-3.003.743c-4.812 0-8.714-5.457-8.714-12.188a15.5 15.5 0 0 1 1.82-7.45m-186 23.495 6.911 4.383-4.196-7.63a6.83 6.83 0 0 1 4.18-1.491l.11.001a8 8 0 0 0 1.434-.106l2.343 1.485-1.004-1.825a8.34 8.34 0 0 0 4.097-3.11l4.192 2.658-2.648-4.815a12.27 12.27 0 0 1 9.392-4.747c4.36 0 8.243 2.593 10.75 6.632a8.04 8.04 0 0 0 7.105 3.831q.117-.004.234-.004c4.813 0 8.714 5.457 8.714 12.188s-3.9 12.187-8.714 12.187a6.54 6.54 0 0 1-3.035-.76 12.58 12.58 0 0 0-10.547-.206 11 11 0 0 1-8.967.021 12.58 12.58 0 0 0-10.454.202 6.5 6.5 0 0 1-3.003.743c-4.812 0-8.714-5.456-8.714-12.187a15.5 15.5 0 0 1 1.82-7.45"/><path fill="#6c63ff" d="m304.72 596.864-1.207 1.207s.402 13.278.805 16.095 2.012 7.645.804 11.266-1.61 6.438-1.207 6.84-.402 2.012-.402 2.012l3.219-2.012 5.23-12.07-2.413-12.877Z"/><path d="m304.72 596.864-1.207 1.207s.402 13.278.805 16.095 2.012 7.645.804 11.266-1.61 6.438-1.207 6.84-.402 2.012-.402 2.012l3.219-2.012 5.23-12.07-2.413-12.877Z" opacity=".1"/><path fill="#6c63ff" d="M326.046 722.001s0-4.426-.805-5.23-2.012-3.622-3.621-3.622-7.243 1.61-7.243 2.012a7.35 7.35 0 0 1-.805 3.621c-.805 1.207-5.23 6.036-.805 6.84a11.24 11.24 0 0 0 8.45-2.012c.403-.402 2.012-.804 2.414-.402s2.415-1.207 2.415-1.207m11.266-7.243 2.414 4.426s.805 4.024 2.012 4.427h1.207s1.207 4.426 4.024 4.023 6.035-2.012 6.035-2.816 0-3.22-1.207-4.024a57 57 0 0 1-4.828-4.426l-2.012-2.012Z"/><path fill="#2f2e41" d="M306.432 567.367a5.43 5.43 0 0 0-2.907 4.064c-.224 2.873 2.616 5.58 1.703 8.312-.519 1.552-2.134 2.557-2.6 4.125a5.68 5.68 0 0 0 .522 3.682 28 28 0 0 0 2.31 4.467c1.697 2.663 3.904 5.19 4.358 8.315a3.55 3.55 0 0 1-.785 3.128 7.5 7.5 0 0 1 2.745-1.306 34.9 34.9 0 0 0 11.267-6.275 7.04 7.04 0 0 0 2.605-3.463c.614-2.472-1.262-4.945-1.082-7.486.115-1.626 1.053-3.06 1.584-4.601a11.9 11.9 0 0 0-1.027-9.263 11.05 11.05 0 0 0-6.577-5.72 13.05 13.05 0 0 0-6.647.191 24.4 24.4 0 0 0-5.469 1.83"/><path fill="#6c63ff" d="M308.697 589.68a10.44 10.44 0 0 1 9.1-5.49c6.438 0 5.23-.403 5.23-.403l-2.011 8.047-4.024 4.024Z"/><path fill="#fbbebe" d="M310.353 581.171s3.622 6.036 1.207 8.45-1.207 4.829-.804 5.231 11.668 1.207 11.668 1.207l.403-5.633 1.207-4.829s-6.438-1.207-5.633-4.023-8.048-.403-8.048-.403"/><path d="M310.353 581.171s3.622 6.036 1.207 8.45-1.207 4.829-.804 5.231 11.668 1.207 11.668 1.207l.403-5.633 1.207-4.829s-6.438-1.207-5.633-4.023-8.048-.403-8.048-.403" opacity=".1"/><path fill="#fbbebe" d="M338.52 638.308a28 28 0 0 1-1.61 4.024c-.403.402-1.61-2.817-1.61-2.817l1.207-2.816ZM333.892 620l1.609 9.255h-24.142l1.207-9.255z"/><circle cx="314.779" cy="576.745" r="7.645" fill="#fbbebe"/><path fill="#6c63ff" d="M316.389 592.438s-4.426.402-4.426-.403-.403-3.219-1.207-2.816-6.036.804-5.634 2.012 1.207 3.62.403 3.62a2.62 2.62 0 0 0-2.012 3.22c.402 2.012 4.828 14.083 4.828 14.083s.403 4.024 1.61 5.23a3.61 3.61 0 0 1 0 4.427c-.805.805 2.012 1.61 3.219 3.219s10.461.402 10.864 0 10.06-.403 10.864-1.207-.403-3.22-.403-3.22-.402-3.62 0-4.828-1.609-20.923-2.816-22.13 3.621-4.829 3.621-4.829-.805-3.219-6.035-3.62c0 0-1.61-2.415-3.22-2.415s-5.103 1.872-5.103 1.872-.932 5.37-2.139 5.773a6.6 6.6 0 0 0-2.414 2.012"/><path fill="#6c63ff" d="m332.484 587.61 2.816 1.206s8.048 24.947 7.243 29.776-2.817 21.325-4.024 21.325-3.621-2.414-3.621-2.414v-4.023c0-.805-1.207-3.22-.403-3.22s2.012-.804 1.208-1.609-1.61-2.012-.805-3.219 1.207-1.61.805-2.817-1.208-2.414-.403-3.219-2.012-4.828-2.012-4.828l-4.426-17.704.805-7.243Z"/><path fill="#2f2e41" d="M334.093 625.834s-15.29-1.207-17.302-1.207-6.525-1.894-6.525-1.894-11.582 11.551-7.558 30.463 4.829 42.249 7.243 49.089a127 127 0 0 1 4.024 14.888s4.023-7.243 11.668.804c0 0 .805-6.035-.402-8.45s-2.817-15.29-2.817-15.29-2.816-20.52-2.816-22.935-1.61-22.935-1.207-23.337 2.414 15.692 2.816 18.509 1.61 24.544 2.817 26.959 6.84 21.728 10.06 22.935 14.082-.403 13.68-1.207-3.22-5.231-4.024-6.438l-3.219-4.829-7.645-26.154 3.621-31.787s2.012-20.52-2.414-20.119m-14.657-50.094h-9.804a1.746 1.746 0 0 1-1.725-1.475l-.974-6.17h15.29l-1.367 6.492a1.45 1.45 0 0 1-1.42 1.152m505.279-1.905h15.469v22.098a15.47 15.47 0 0 1-15.469-15.468z"/><path fill="#a0616a" d="m815.692 703.292-1.105 5.525h7.734l.368-5.525z"/><path fill="#6c63ff" d="M815.692 707.712s-1.474-1.105-2.21-.368-3.315 15.1-3.683 15.469-11.418 5.892-8.84 6.26 12.523.737 13.996 0 5.525-7.734 5.525-7.734v6.261h.736s.737-6.629 2.578-8.47-1.473-8.103-1.473-8.103.737-4.052.368-4.052-6.997.737-6.997.737"/><path fill="#a0616a" d="m838.526 699.425-1.105 5.525h7.735l.368-5.525z"/><path fill="#2f2e41" d="M829.687 663.516s3.683 11.049 4.42 12.154 3.314 21.73 3.314 21.73-2.578 4.051.737 4.42 1.842-.737 4.051 0a4.16 4.16 0 0 0 3.683-.369s1.105-2.21.369-2.946.736-19.889.736-19.889l-2.21-6.63-1.841-20.992s2.21-5.525 1.105-6.998-4.788 1.105-4.788 1.105Z"/><path fill="#2f2e41" d="M824.9 634.788s-1.106 11.786-1.842 12.523-8.84 21.361-8.84 21.361-2.21 2.578-1.473 12.154 2.578 19.152 2.578 19.152-1.473 5.524 1.105 5.524 3.683-1.473 4.788-.368 1.842 0 2.21-.737 1.841-3.314 1.841-4.05 1.474-19.52 1.474-19.52 12.154-26.887 13.259-28.36 7.366-9.576 6.997-15.1Z"/><circle cx="834.107" cy="577.333" r="7.734" fill="#a0616a"/><path fill="#a0616a" d="M832.634 583.963s2.946 6.629 3.314 8.47 7.366-3.682 7.366-3.682-3.683-6.262-2.578-9.208Z"/><path fill="#3f3d56" d="M844.42 587.646s-5.525-4.052-9.577 4.42-5.156 8.102-5.156 8.102-4.788 1.473-3.315 11.786-4.788 23.94-2.21 24.676 26.518 4.788 26.518 1.841-2.21-14.364-.368-21.361-2.578-31.306-5.893-29.464"/><path fill="#3f3d56" d="M838.895 589.487s-4.42 6.63-4.052 11.786.369 8.47.369 8.47-7.366 35.358-5.893 35.358 5.893 1.841 6.26.736 9.577-23.571 9.577-23.571 2.21-22.466-.369-27.623-5.892-5.156-5.892-5.156"/><path fill="#a0616a" d="M830.055 643.996s-3.683 12.522 1.474 12.89 2.21-12.154 2.21-12.154Z"/><path fill="#6c63ff" d="M839.858 702.081s-1.29-.967-1.935-.322-2.903 13.223-3.226 13.546-9.998 5.16-7.74 5.483 10.966.645 12.256 0 4.838-6.773 4.838-6.773v5.483h.645s.645-5.806 2.258-7.418-1.29-7.096-1.29-7.096.645-3.548.322-3.548-6.128.645-6.128.645"/><path fill="#2f2e41" d="M830.283 572.265a2.15 2.15 0 0 1 .932-.66 1.95 1.95 0 0 1 1.016.088 10.36 10.36 0 0 1 5.666 4.12 3.2 3.2 0 0 0 1.141 1.235 7 7 0 0 1 .923.352c.861.569.348 1.888-.147 2.793a14.1 14.1 0 0 0-1.689 7.615 2.18 2.18 0 0 0 .387 1.291 2.3 2.3 0 0 0 1.53.611 38 38 0 0 0 5.39.288c1.764-.031 3.72-.281 4.862-1.624 1.227-1.444 1.035-3.656.236-5.375s-2.097-3.155-3.02-4.81a28.2 28.2 0 0 1-2.06-5.478 23 23 0 0 0-3.045-6.794 9.1 9.1 0 0 0-6.115-3.92c-3.346-.373-6.431 1.687-9.12 3.713-3.02 2.274-6.234 5.087-6.476 8.86-.197 3.056 1.638 5.82 2.597 8.73 1.48 4.49.86 9.367.224 14.052 2.727-1.634 5.813-3.902 5.634-7.076-.12-2.141-1.736-3.85-2.742-5.745-2.765-5.208.388-8.7 3.876-12.266"/><path fill="#3f3d56" d="M939.048 609.908a26.5 26.5 0 0 0 3.504-13.429c0-12.136-7.516-21.974-16.786-21.974s-16.787 9.838-16.787 21.974a26.5 26.5 0 0 0 3.504 13.43 27.49 27.49 0 0 0 0 26.857 27.49 27.49 0 0 0 0 26.858 27.49 27.49 0 0 0 0 26.858 26.5 26.5 0 0 0-3.504 13.429c0 12.136 7.516 21.974 16.787 21.974s16.786-9.838 16.786-21.974a26.5 26.5 0 0 0-3.504-13.43 27.49 27.49 0 0 0 0-26.857 27.49 27.49 0 0 0 0-26.858 27.49 27.49 0 0 0 0-26.858"/><ellipse cx="925.765" cy="569.622" fill="#3f3d56" rx="16.786" ry="21.975"/><ellipse cx="925.765" cy="542.764" fill="#3f3d56" rx="16.786" ry="21.975"/><path fill="#f2f2f2" d="M988.604 358.967a81 81 0 0 0 6.252-9.202l-44.107-7.243 47.703.354a80.55 80.55 0 0 0 1.535-63.71l-63.999 33.2 59.022-43.386a80.412 80.412 0 1 0-132.803 89.987 80.5 80.5 0 0 0-9.17 14.664l57.254 29.745-61.048-20.489a80.45 80.45 0 0 0 12.964 75.507 80.406 80.406 0 1 0 126.397 0 80.42 80.42 0 0 0 0-99.427"/><path fill="#f2f2f2" d="M845 408.68a80.06 80.06 0 0 0 17.207 49.714 80.406 80.406 0 1 0 126.397 0C999.381 444.713 845 399.656 845 408.68"/><path fill="#57b894" d="M988.604 358.967a81 81 0 0 0 6.252-9.202l-44.107-7.243 47.703.354a80.55 80.55 0 0 0 1.535-63.71l-63.999 33.2 59.022-43.386a80.412 80.412 0 1 0-132.803 89.987 80.5 80.5 0 0 0-9.17 14.664l57.254 29.745-61.048-20.489a80.45 80.45 0 0 0 12.964 75.507 80.406 80.406 0 1 0 126.397 0 80.42 80.42 0 0 0 0-99.427"/><path d="M845 408.68a80.06 80.06 0 0 0 17.207 49.714 80.406 80.406 0 1 0 126.397 0C999.381 444.713 845 399.656 845 408.68" opacity=".1"/><path fill="#3f3d56" d="M94.048 609.908a26.5 26.5 0 0 0 3.504-13.429c0-12.136-7.516-21.974-16.787-21.974s-16.786 9.838-16.786 21.974a26.5 26.5 0 0 0 3.504 13.43 27.49 27.49 0 0 0 0 26.857 27.49 27.49 0 0 0 0 26.858 27.49 27.49 0 0 0 0 26.858 26.5 26.5 0 0 0-3.504 13.429c0 12.136 7.516 21.974 16.787 21.974s16.786-9.838 16.786-21.974a26.5 26.5 0 0 0-3.504-13.43 27.49 27.49 0 0 0 0-26.857 27.49 27.49 0 0 0 0-26.858 27.49 27.49 0 0 0 0-26.858"/><ellipse cx="80.765" cy="569.622" fill="#3f3d56" rx="16.786" ry="21.975"/><ellipse cx="80.765" cy="542.764" fill="#3f3d56" rx="16.786" ry="21.975"/><path fill="#f2f2f2" d="M143.604 358.967a81 81 0 0 0 6.252-9.202l-44.107-7.243 47.703.354a80.55 80.55 0 0 0 1.535-63.71l-63.999 33.2 59.022-43.386a80.412 80.412 0 1 0-132.803 89.987 80.5 80.5 0 0 0-9.17 14.664l57.254 29.745-61.048-20.489a80.45 80.45 0 0 0 12.964 75.507 80.406 80.406 0 1 0 126.397 0 80.42 80.42 0 0 0 0-99.427"/><path fill="#f2f2f2" d="M0 408.68a80.06 80.06 0 0 0 17.207 49.714 80.406 80.406 0 1 0 126.397 0C154.381 444.713 0 399.656 0 408.68"/><path fill="#57b894" d="M143.604 358.967a81 81 0 0 0 6.252-9.202l-44.107-7.243 47.703.354a80.55 80.55 0 0 0 1.535-63.71l-63.999 33.2 59.022-43.386a80.412 80.412 0 1 0-132.803 89.987 80.5 80.5 0 0 0-9.17 14.664l57.254 29.745-61.048-20.489a80.45 80.45 0 0 0 12.964 75.507 80.406 80.406 0 1 0 126.397 0 80.42 80.42 0 0 0 0-99.427"/><path d="M0 408.68a80.06 80.06 0 0 0 17.207 49.714 80.406 80.406 0 1 0 126.397 0C154.381 444.713 0 399.656 0 408.68" opacity=".1"/><path fill="#57b894" d="m579.452 354.556-39.896 39.896-18.903-18.902-7.359 7.359 26.237 26.237 47.281-47.231zm127-91-39.896 39.896-18.903-18.902-7.359 7.359 26.237 26.237 47.281-47.231z"/></svg>