<svg xmlns="http://www.w3.org/2000/svg" width="572.88" height="361.347" viewBox="0 0 572.88 361.347"><path fill="#6c63ff" d="M418.012 88c0 34.668-54.19 136.907-85.26 192.678a24.312 24.312 0 0 1-42.48 0c-31.07-55.771-85.26-158.01-85.26-192.678 0-48.601 47.682-88 106.5-88s106.5 39.399 106.5 88"/><circle cx="312.012" cy="87" r="58" fill="#fff"/><circle cx="69.982" cy="104.74" r="34.74" fill="#ff6584"/><ellipse cx="311.512" cy="354.856" fill="#6c63ff" rx="84.092" ry="6.492"/><circle cx="356.74" cy="401.758" r="19.986" fill="#6c63ff" opacity=".4" style="isolation:isolate" transform="rotate(-80.783 41.683 451.368)"/><path fill="#3f3d56" d="M510.77 235.53c-157.39-59-349.35-1.48-460.18 116.18-.63.66-1.26 1.33-1.87 2h-1.69c.58-.67 1.18-1.34 1.77-2C161.93 225.1 351.34 174.64 510.77 235.53m43.01 19.57a376 376 0 0 0-43.01-19.57 341 341 0 0 1 43.01 19.57"/><circle cx="467.641" cy="174.315" r="21.92" fill="#6c63ff" opacity=".4" style="isolation:isolate"/><path fill="#3f3d56" d="M470.081 342.921c1.694 6.262 7.497 10.14 7.497 10.14s3.055-6.274 1.361-12.536-7.496-10.14-7.496-10.14-3.055 6.274-1.362 12.536"/><path fill="#6c63ff" d="M472.57 341.575c4.649 4.525 5.217 11.48 5.217 11.48s-6.969-.38-11.617-4.904-5.216-11.481-5.216-11.481 6.968.38 11.617 4.905"/><path fill="#3f3d56" d="M3.36 255.855v9.66l-.48.52v-10.28c.16.03.32.07.48.1"/><path fill="#ccc" d="M34.14 351.705c-.14.23-.29.46-.44.69H2.88v-96.06l.48-.48 4.09 4.65v-6.8h13v21.58l13.13 14.91.12.14c.16.5.31 1 .46 1.5a.04.04 0 0 0 .01.02 177 177 0 0 1 4.84 19.19c2.86 15.29 2.43 29.31-4.87 40.66"/><path fill="#3f3d56" d="M5.427 308.953h8.274v6.895H5.427zm0 12.412h8.274v6.895H5.427zm263.161-25.513-4.137-6.895 38.614-33.098c28.547-13.741 62.958-9.776 99.294 0v9.653l-35.856 38.615-41.373 8.274Z"/><path fill="#ccc" d="M419.45 275.282c6.858-7.628 7.81-14.88 0-21.577h-13v6.804l-4.091-4.65-33.098 33.098-5.517 5.516-6.895 27.582 12.412 30.339h63.437v-62.058Z"/><path fill="#f2f2f2" d="M264.45 288.956h104.81v63.438H264.45c-12.68-13.719-6.092-38.723 0-63.438"/><path fill="#3f3d56" d="M332.715 308.953h22.065v19.307h-22.065z"/><path fill="#ccc" d="M304.444 308.263h19.307v44.13h-19.307z"/><path fill="#3f3d56" d="M282.379 315.159v-6.895h-8.274v6.895zm-.69 5.516h-7.584v6.896h8.274v-6.896zm6.206-12.412h8.274v6.895h-8.274zm0 12.412h8.274v6.895h-8.274zm111.016-4.826v-6.896h-8.275v6.896zm-.69 5.516h-7.585v6.895h8.275v-6.895zm6.206-12.412h8.274v6.895h-8.274zm0 12.412h8.274v6.895h-8.274zM81.966 180.01l-6.895-5.517 38.614-34.477h97.914v30.34l-63.437 42.752z"/><path fill="#ccc" d="M229.45 159.356v-18.651h-13v4.568l-4.851-5.257-31.72 34.477-12.41 8.275-19.245 140.603 29.023 29.023h67.45c10.335-51.988 18.53-105.395 0-176.522Z"/><path fill="#f2f2f2" d="M75.07 174.493h104.81v177.9H75.07c-11.469-69.112-17.07-133.205 0-177.9"/><path fill="#ccc" d="M115.753 308.953h19.307v43.441h-19.307z"/><path fill="#3f3d56" d="M95.067 321.365v-6.895h-8.274v6.895zm-.689 5.516h-7.585v6.896h8.274v-6.896zm6.205-12.412h8.274v6.895h-8.274zm50.337 12.412h-7.585v6.896h8.274v-6.896zm6.205-12.412h8.274v6.895h-8.274zm0 12.412h8.274v6.895h-8.274zm52.405-143.424v-6.895h-8.274v6.895zm-.689 5.517h-7.585v6.895h8.274v-6.895zm6.206-12.412h8.274v6.895h-8.274zm0 12.411h8.274v6.895h-8.274zm-5.517 33.099v-6.896h-8.274v6.896zm-.689 5.516h-7.585v6.895h8.274v-6.895zm6.206-12.412h8.274v6.895h-8.274zm0 12.411h8.274v6.895h-8.274zm-5.517 33.099v-6.896h-8.274v6.896zm-.689 5.516h-7.585v6.895h8.274v-6.895zm6.206-12.412h8.274v6.895h-8.274zm0 12.412h8.274v6.895h-8.274zM209.53 299.3v-6.896h-8.274v6.896zm-.689 5.516h-7.585v6.895h8.274v-6.895zm6.206-12.412h8.274v6.895h-8.274zm0 12.412h8.274v6.895h-8.274zM86.793 183.457h79.986v16.549c-25.638-7.076-52.374-6.568-79.986 0Zm0 33.098q37.447 11.033 79.986 0v16.549H86.793Zm0 33.098h79.986v16.549c-27.26-8.705-53.95-9.115-79.986 0Zm0 33.097c26.086 10.054 52.772 9.636 79.986 0v16.55H86.793ZM516.68 254h56.2v27.08l-5.02 1.57-16.7 5.212-26.2-6.069-26.17-6.064-13.82-3.202-6.9-2.552c5.74-7.877 16.18-14.07 38.61-15.975"/><path fill="#f2f2f2" d="M572.88 269.975v82.42h-94.81c-.03-.05-.05-.097-.08-.148v-.005a1 1 0 0 0-.08-.166q-2.22-4.469-3.98-8.914c-9.95-25.079-8.87-49.494 4.14-73.187Z"/><path fill="#ccc" d="M518.753 308.953h19.307v43.441h-19.307z"/><path fill="#3f3d56" d="M498.067 321.365v-6.895h-8.274v6.895zm-.689 5.516h-7.585v6.896h8.274v-6.896zm6.205-12.412h8.274v6.895h-8.274zm0 12.412h8.274v6.895h-8.274zm51.026-5.516v-6.895h-8.274v6.895zm-.689 5.516h-7.585v6.896h8.274v-6.896zm6.205-12.412h8.274v6.895h-8.274zm0 12.412h8.274v6.895h-8.274zM498.793 222h11.885a44.2 44.2 0 0 1 44.202 44.202h-56.087Zm-360-120h11.885a44.2 44.2 0 0 1 44.202 44.202h-56.087Zm190 111h11.885a44.2 44.2 0 0 1 44.202 44.202h-56.087Zm170 69.751h56.087V299.3h-56.087zM2.88 351.71h570v2h-570zm50.571-79.005h2v79h-2z"/><path fill="#6c63ff" d="M73.909 282.773c.127 27.624-19.308 50.108-19.308 50.108S29.71 310.1 34.83 282.953c5.15-27.3 21.2-49.992 19.309-50.108 0 0 19.641 22.304 19.769 49.928"/><path fill="#3f3d56" d="M253.451 272.705h2v79h-2z"/><path fill="#6c63ff" d="M273.909 282.773c1.802 27.566-19.308 50.108-19.308 50.108s-19.642-22.304-19.77-49.928 19.309-50.108 19.309-50.108c-1.895 7.572 18.31 27.624 19.769 49.928"/><path fill="#3f3d56" d="m125.513 144.289 86.874-4.25 36.443 30.419-6.443 5.817-57.709-1.299zM38.83 285.455l-4.68 4.23-.57.51-1.19 1.08-29.51-.66v-34.86q-1.44-.315-2.88-.6l2.39-.12.49.41 4.57 3.81 13 10.86 14.52 12.12Zm276.683-26.166 86.874-4.25 36.443 30.419-6.443 5.817-57.709-1.299z"/></svg>